<svg xmlns="http://www.w3.org/2000/svg" width="1200" height="900" viewBox="0 0 1200 900" role="img" aria-labelledby="title desc">
  <title id="title">청소로봇 사전 구매 특별 혜택</title>
  <desc id="desc">사전 구매 고객을 위한 여섯 가지 혜택 안내 이미지</desc>
  <defs>
    <linearGradient id="brandRed" x1="0" y1="0" x2="1" y2="1">
      <stop offset="0" stop-color="#D91E48"/>
      <stop offset="1" stop-color="#A50034"/>
    </linearGradient>
    <linearGradient id="softBg" x1="0" y1="0" x2="1" y2="1">
      <stop offset="0" stop-color="#FFF5F7"/>
      <stop offset="1" stop-color="#F3F7FF"/>
    </linearGradient>
    <filter id="shadow" x="-20%" y="-20%" width="140%" height="140%">
      <feDropShadow dx="0" dy="14" stdDeviation="18" flood-color="#5A1025" flood-opacity="0.12"/>
    </filter>
    <style>
      .font { font-family: 'Noto Sans KR', 'Apple SD Gothic Neo', 'Malgun Gothic', sans-serif; }
      .title { font-size: 45px; font-weight: 800; fill: #151823; letter-spacing: 0; }
      .subtitle { font-size: 22px; font-weight: 500; fill: #626A78; letter-spacing: 0; }
      .card-title { font-size: 25px; font-weight: 800; fill: #151823; letter-spacing: 0; }
      .card-sub { font-size: 30px; font-weight: 900; fill: #A50034; letter-spacing: 0; }
      .eyebrow { font-size: 15px; font-weight: 800; fill: #A50034; letter-spacing: 0; }
      .tiny { font-size: 14px; font-weight: 700; fill: #7B8290; letter-spacing: 0; }
    </style>
  </defs>

  <rect width="1200" height="900" fill="url(#softBg)"/>
  <rect x="62" y="58" width="1076" height="784" rx="38" fill="#FFFFFF" opacity="0.74"/>

  <g class="font">
    <g transform="translate(126 111)">
      <rect x="0" y="0" width="116" height="116" rx="28" fill="url(#brandRed)"/>
      <g fill="none" stroke="#FFFFFF" stroke-width="9" stroke-linecap="round" stroke-linejoin="round" transform="translate(29 28)">
        <rect x="0" y="20" width="58" height="45" rx="5"/>
        <path d="M29 20v45M-5 20h68"/>
        <path d="M29 20c-18-5-22-18-14-25 9-8 22 2 14 25Z"/>
        <path d="M29 20c18-5 22-18 14-25-9-8-22 2-14 25Z"/>
      </g>
      <text x="154" y="47" class="title">사전 구매하면 어떤 혜택이 있을까요?</text>
      <text x="154" y="87" class="subtitle">한정 기간 사전 구매 고객에게만 제공하는</text>
      <text x="154" y="121" class="subtitle">특별 혜택을 지금 확인해 보세요.</text>
    </g>

    <g transform="translate(180 296)" filter="url(#shadow)">
      <g transform="translate(0 0)">
        <rect width="250" height="240" rx="18" fill="#FFFFFF" stroke="#E5E7EB" stroke-width="2"/>
        <text x="24" y="42" class="eyebrow">BENEFIT 01</text>
        <g transform="translate(84 64)">
          <rect x="13" y="32" width="72" height="62" rx="8" fill="#F5D1D9"/>
          <rect x="23" y="42" width="52" height="52" rx="6" fill="#D91E48"/>
          <path d="M49 32v62M13 50h72" stroke="#FFFFFF" stroke-width="8" stroke-linecap="round"/>
          <path d="M49 32c-23-7-24-23-13-29 11-7 24 4 13 29Z" fill="#A50034"/>
          <path d="M49 32c23-7 24-23 13-29-11-7-24 4-13 29Z" fill="#A50034"/>
        </g>
        <text x="125" y="177" text-anchor="middle" class="card-title">사전 일시불 구매</text>
        <text x="125" y="215" text-anchor="middle" class="card-sub">웰컴키트 증정</text>
      </g>

      <g transform="translate(280 0)">
        <rect width="250" height="240" rx="18" fill="#FFFFFF" stroke="#E5E7EB" stroke-width="2"/>
        <text x="24" y="42" class="eyebrow">BENEFIT 02</text>
        <g transform="translate(66 70)">
          <rect x="0" y="17" width="118" height="58" rx="15" fill="#141414"/>
          <rect x="16" y="0" width="86" height="28" rx="14" fill="#D91E48"/>
          <text x="59" y="20" text-anchor="middle" font-size="14" font-weight="900" fill="#FFFFFF">subscribe</text>
          <text x="59" y="58" text-anchor="middle" font-size="24" font-weight="900" fill="#FFFFFF">1,400원</text>
        </g>
        <text x="125" y="177" text-anchor="middle" class="card-title">사전 구독</text>
        <text x="125" y="215" text-anchor="middle" class="card-sub">월 1,400원 할인</text>
      </g>

      <g transform="translate(560 0)">
        <rect width="250" height="240" rx="18" fill="#FFFFFF" stroke="#E5E7EB" stroke-width="2"/>
        <text x="24" y="42" class="eyebrow">BENEFIT 03</text>
        <g transform="translate(77 55)" fill="none" stroke-linecap="round" stroke-linejoin="round">
          <path d="M26 18v82M78 18v82" stroke="#6B4B3E" stroke-width="5"/>
          <path d="M18 101h18M70 101h18" stroke="#6B4B3E" stroke-width="6"/>
          <path d="M11 18c9-12 21-12 30 0M63 18c9-12 21-12 30 0" stroke="#A50034" stroke-width="4"/>
          <circle cx="26" cy="12" r="7" fill="#F6C2CE" stroke="#A50034" stroke-width="3"/>
          <circle cx="78" cy="12" r="7" fill="#F6C2CE" stroke="#A50034" stroke-width="3"/>
        </g>
        <text x="125" y="177" text-anchor="middle" class="card-title">포토리뷰 후</text>
        <text x="125" y="215" text-anchor="middle" class="card-sub">렉슨 조명 신청</text>
      </g>

      <g transform="translate(0 278)">
        <rect width="250" height="240" rx="18" fill="#FFFFFF" stroke="#E5E7EB" stroke-width="2"/>
        <text x="24" y="42" class="eyebrow">BENEFIT 04</text>
        <g transform="translate(66 64)">
          <rect x="0" y="46" width="118" height="40" rx="6" fill="#A50034" transform="rotate(-5 59 66)"/>
          <rect x="12" y="22" width="98" height="40" rx="6" fill="#D91E48" transform="rotate(6 61 42)"/>
          <rect x="25" y="0" width="78" height="40" rx="6" fill="#F25A73"/>
          <text x="64" y="26" text-anchor="middle" font-size="16" font-weight="900" fill="#FFFFFF">APP</text>
        </g>
        <text x="125" y="177" text-anchor="middle" class="card-title">LGE.COM 앱전용</text>
        <text x="125" y="215" text-anchor="middle" class="card-sub">총 50만원 쿠폰팩</text>
      </g>

      <g transform="translate(280 278)">
        <rect width="250" height="240" rx="18" fill="#FFFFFF" stroke="#E5E7EB" stroke-width="2"/>
        <text x="24" y="42" class="eyebrow">BENEFIT 05</text>
        <g transform="translate(66 68)">
          <rect x="4" y="25" width="112" height="66" rx="10" fill="#1F2937" transform="rotate(-9 60 58)"/>
          <rect x="0" y="8" width="112" height="66" rx="10" fill="#FFFFFF" stroke="#CDD3DF" stroke-width="3"/>
          <rect x="0" y="25" width="112" height="14" fill="#A50034"/>
          <circle cx="82" cy="57" r="9" fill="#F3B3C1"/>
          <circle cx="94" cy="57" r="9" fill="#D91E48"/>
        </g>
        <text x="125" y="177" text-anchor="middle" class="card-title">카드사 결제일</text>
        <text x="125" y="215" text-anchor="middle" class="card-sub">할인 최대 10%</text>
      </g>

      <g transform="translate(560 278)">
        <rect width="250" height="240" rx="18" fill="#FFFFFF" stroke="#E5E7EB" stroke-width="2"/>
        <text x="24" y="42" class="eyebrow">BENEFIT 06</text>
        <g transform="translate(75 60)">
          <rect x="10" y="8" width="95" height="96" rx="10" fill="#FFFFFF" stroke="#CDD3DF" stroke-width="3"/>
          <rect x="10" y="8" width="95" height="25" rx="10" fill="#D91E48"/>
          <path d="M10 33h95M31 8v-14M84 8v-14" stroke="#A50034" stroke-width="5" stroke-linecap="round"/>
          <text x="58" y="75" text-anchor="middle" font-size="34" font-weight="900" fill="#151823">12</text>
        </g>
        <text x="125" y="177" text-anchor="middle" class="card-title">무이자 혜택</text>
        <text x="125" y="215" text-anchor="middle" class="card-sub">최대 12개월</text>
      </g>
    </g>
  </g>
</svg>